<svg xmlns="http://www.w3.org/2000/svg" viewBox="0 0 1920 600">
  <defs>
    <linearGradient id="bg" x1="0%" y1="0%" x2="100%" y2="100%">
      <stop offset="0%" style="stop-color:#1565c0;stop-opacity:1" />
      <stop offset="100%" style="stop-color:#42a5f5;stop-opacity:1" />
    </linearGradient>
  </defs>
  <rect width="1920" height="600" fill="url(#bg)"/>
  <!-- eye/search -->
  <g transform="translate(250,150)" opacity="0.10" fill="white">
    <ellipse cx="80" cy="60" rx="80" ry="55"/>
    <circle cx="80" cy="60" r="30" fill="url(#bg)"/>
    <circle cx="80" cy="60" r="12" fill="white"/>
  </g>
  <!-- magnifying glass -->
  <g transform="translate(1350,120)" opacity="0.10" fill="none" stroke="white" stroke-width="12">
    <circle cx="60" cy="60" r="50"/>
    <line x1="95" y1="95" x2="140" y2="140"/>
  </g>
  <!-- map pin -->
  <g transform="translate(880,80)" opacity="0.08" fill="white">
    <path d="M40 0C18 0 0 18 0 40c0 30 40 70 40 70s40-40 40-70C80 18 62 0 40 0zm0 55c-8 0-15-7-15-15s7-15 15-15 15 7 15 15-7 15-15 15z"/>
  </g>
  <!-- paw prints -->
  <g transform="translate(600,400)" opacity="0.07" fill="white">
    <circle cx="0" cy="0" r="16"/><circle cx="28" cy="-13" r="10"/><circle cx="-28" cy="-13" r="10"/><circle cx="18" cy="-36" r="9"/><circle cx="-18" cy="-36" r="9"/>
  </g>
  <g transform="translate(1150,430)" opacity="0.06" fill="white">
    <circle cx="0" cy="0" r="14"/><circle cx="24" cy="-12" r="9"/><circle cx="-24" cy="-12" r="9"/><circle cx="16" cy="-32" r="8"/><circle cx="-16" cy="-32" r="8"/>
  </g>
</svg>
