<svg xmlns="http://www.w3.org/2000/svg" viewBox="0 0 1920 600">
  <defs>
    <linearGradient id="bg" x1="0%" y1="0%" x2="100%" y2="100%">
      <stop offset="0%" style="stop-color:#e53935;stop-opacity:1" />
      <stop offset="100%" style="stop-color:#ff7043;stop-opacity:1" />
    </linearGradient>
  </defs>
  <rect width="1920" height="600" fill="url(#bg)"/>
  <!-- dog silhouette -->
  <g transform="translate(200,120)" opacity="0.12" fill="white">
    <path d="M120 300c-20-40-60-80-80-100s-30-60-20-90 30-40 50-30 30 30 40 50c10-30 30-60 60-70s50 10 60 30c20-30 50-50 80-40s40 40 30 70c-5 15-20 30-30 40l60 80c10 20 10 40-10 60H120z"/>
  </g>
  <g transform="translate(1400,150)" opacity="0.10" fill="white">
    <path d="M80 250c-15-30-50-70-65-85s-25-50-15-75 25-35 42-25 25 25 33 42c8-25 25-50 50-58s42 8 50 25c17-25 42-42 67-33s33 33 25 58c-4 13-17 25-25 33l50 67c8 17 8 33-8 50H80z"/>
  </g>
  <!-- paw prints -->
  <g transform="translate(900,80)" opacity="0.08" fill="white">
    <circle cx="0" cy="0" r="18"/><circle cx="30" cy="-15" r="12"/><circle cx="-30" cy="-15" r="12"/><circle cx="20" cy="-40" r="10"/><circle cx="-20" cy="-40" r="10"/>
  </g>
  <g transform="translate(1100,400)" opacity="0.08" fill="white">
    <circle cx="0" cy="0" r="18"/><circle cx="30" cy="-15" r="12"/><circle cx="-30" cy="-15" r="12"/><circle cx="20" cy="-40" r="10"/><circle cx="-20" cy="-40" r="10"/>
  </g>
  <g transform="translate(500,450)" opacity="0.06" fill="white">
    <circle cx="0" cy="0" r="14"/><circle cx="24" cy="-12" r="9"/><circle cx="-24" cy="-12" r="9"/><circle cx="16" cy="-32" r="8"/><circle cx="-16" cy="-32" r="8"/>
  </g>
</svg>
